<svg xmlns="http://www.w3.org/2000/svg" viewBox="0 0 700 600" width="700" height="600">
  <!-- Bag with speed lines and clock icon -->
  <g transform="translate(50, 180)">
    <!-- Speed lines -->
    <path d="M 60 140 L 100 140" stroke="#1976D2" stroke-width="8" stroke-linecap="round"/>
    <path d="M 50 160 L 100 160" stroke="#1976D2" stroke-width="8" stroke-linecap="round"/>
    <path d="M 60 180 L 100 180" stroke="#1976D2" stroke-width="8" stroke-linecap="round"/>
    
    <!-- Bag body -->
    <path d="M 110 140 L 110 240 C 110 250 120 260 130 260 L 230 260 C 240 260 250 250 250 240 L 250 140 Z" 
          fill="#1976D2" stroke="#1976D2" stroke-width="4"/>
    
    <!-- Bag handle -->
    <path d="M 130 140 C 130 100 230 100 230 140" 
          fill="none" stroke="#1976D2" stroke-width="15" stroke-linecap="round"/>
    
    <!-- Clock circle -->
    <circle cx="200" cy="190" r="45" fill="white" stroke="#1976D2" stroke-width="6"/>
    
    <!-- Clock hands -->
    <line x1="200" y1="190" x2="200" y2="165" stroke="#1976D2" stroke-width="5" stroke-linecap="round"/>
    <line x1="200" y1="190" x2="220" y2="190" stroke="#1976D2" stroke-width="5" stroke-linecap="round"/>
    
    <!-- Money symbols -->
    <text x="140" y="240" font-family="Arial, sans-serif" font-size="35" font-weight="bold" fill="white">$</text>
    <text x="160" y="255" font-family="Arial, sans-serif" font-size="30" font-weight="bold" fill="white">$</text>
  </g>
  
  <!-- AR text -->
  <g transform="translate(320, 150)">
    <text x="0" y="150" font-family="Arial Black, sans-serif" font-size="200" font-weight="900" fill="#1976D2">AR</text>
  </g>
  
  <!-- ARDA STORE text -->
  <g transform="translate(300, 320)">
    <text x="0" y="80" font-family="Arial Black, sans-serif" font-size="90" font-weight="900" fill="#1976D2" letter-spacing="5">ARDA</text>
    <text x="0" y="160" font-family="Arial Black, sans-serif" font-size="80" font-weight="900" fill="#1976D2" letter-spacing="8">STORE</text>
  </g>
</svg>
